<mxfile host="65bd71144e">
    <diagram name="Página-1" id="f7-zcyWFl8f7tQIr4r0p">
        <mxGraphModel dx="2878" dy="1314" grid="1" gridSize="10" guides="1" tooltips="1" connect="1" arrows="1" fold="1" page="1" pageScale="1" pageWidth="827" pageHeight="1169" math="0" shadow="0">
            <root>
                <mxCell id="0"/>
                <mxCell id="1" parent="0"/>
                <mxCell id="Hh7dZNtptdnggyX2xkTj-29" value="" style="rounded=0;whiteSpace=wrap;html=1;" parent="1" vertex="1">
                    <mxGeometry x="104" y="250" width="310" height="710" as="geometry"/>
                </mxCell>
                <mxCell id="Hh7dZNtptdnggyX2xkTj-30" value="" style="rounded=0;whiteSpace=wrap;html=1;" parent="1" vertex="1">
                    <mxGeometry x="414" y="250" width="310" height="710" as="geometry"/>
                </mxCell>
                <mxCell id="Hh7dZNtptdnggyX2xkTj-1" value="Passageiro" style="rounded=0;whiteSpace=wrap;html=1;" parent="1" vertex="1">
                    <mxGeometry x="104" y="210" width="310" height="40" as="geometry"/>
                </mxCell>
                <mxCell id="Hh7dZNtptdnggyX2xkTj-2" value="Aplicação" style="rounded=0;whiteSpace=wrap;html=1;" parent="1" vertex="1">
                    <mxGeometry x="414" y="210" width="310" height="40" as="geometry"/>
                </mxCell>
                <mxCell id="Hh7dZNtptdnggyX2xkTj-3" value="" style="ellipse;html=1;shape=startState;fillColor=#000000;strokeColor=#000000;" parent="1" vertex="1">
                    <mxGeometry x="244" y="270" width="30" height="30" as="geometry"/>
                </mxCell>
                <mxCell id="Hh7dZNtptdnggyX2xkTj-4" value="" style="edgeStyle=orthogonalEdgeStyle;html=1;verticalAlign=bottom;endArrow=open;endSize=8;strokeColor=#000000;rounded=0;entryX=0.5;entryY=0;entryDx=0;entryDy=0;" parent="1" source="Hh7dZNtptdnggyX2xkTj-3" target="Hh7dZNtptdnggyX2xkTj-7" edge="1">
                    <mxGeometry relative="1" as="geometry">
                        <mxPoint x="275" y="360" as="targetPoint"/>
                    </mxGeometry>
                </mxCell>
                <mxCell id="Hh7dZNtptdnggyX2xkTj-7" value="Entra na tela de pesquisar voo" style="rounded=1;whiteSpace=wrap;html=1;" parent="1" vertex="1">
                    <mxGeometry x="196.5" y="340" width="125" height="50" as="geometry"/>
                </mxCell>
                <mxCell id="Hh7dZNtptdnggyX2xkTj-10" value="Mostra voos" style="rounded=1;whiteSpace=wrap;html=1;" parent="1" vertex="1">
                    <mxGeometry x="510.25" y="340" width="120" height="50" as="geometry"/>
                </mxCell>
                <mxCell id="Hh7dZNtptdnggyX2xkTj-11" value="" style="edgeStyle=orthogonalEdgeStyle;html=1;verticalAlign=bottom;endArrow=open;endSize=8;strokeColor=#000000;rounded=0;entryX=0;entryY=0.5;entryDx=0;entryDy=0;exitX=1;exitY=0.5;exitDx=0;exitDy=0;" parent="1" source="Hh7dZNtptdnggyX2xkTj-7" target="Hh7dZNtptdnggyX2xkTj-10" edge="1">
                    <mxGeometry relative="1" as="geometry">
                        <mxPoint x="390" y="430" as="targetPoint"/>
                        <mxPoint x="390" y="380" as="sourcePoint"/>
                    </mxGeometry>
                </mxCell>
                <mxCell id="Hh7dZNtptdnggyX2xkTj-12" value="Seleciona voo" style="rounded=1;whiteSpace=wrap;html=1;" parent="1" vertex="1">
                    <mxGeometry x="198.25" y="410" width="121.5" height="50" as="geometry"/>
                </mxCell>
                <mxCell id="Hh7dZNtptdnggyX2xkTj-13" value="" style="edgeStyle=orthogonalEdgeStyle;html=1;verticalAlign=bottom;endArrow=open;endSize=8;strokeColor=#000000;rounded=0;entryX=1;entryY=0.5;entryDx=0;entryDy=0;exitX=0.5;exitY=1;exitDx=0;exitDy=0;" parent="1" source="Hh7dZNtptdnggyX2xkTj-10" target="Hh7dZNtptdnggyX2xkTj-12" edge="1">
                    <mxGeometry relative="1" as="geometry">
                        <mxPoint x="605" y="450" as="targetPoint"/>
                        <mxPoint x="500" y="450" as="sourcePoint"/>
                    </mxGeometry>
                </mxCell>
                <mxCell id="Hh7dZNtptdnggyX2xkTj-14" value="Mostra detalhes do voo" style="rounded=1;whiteSpace=wrap;html=1;" parent="1" vertex="1">
                    <mxGeometry x="510.25" y="460" width="125" height="50" as="geometry"/>
                </mxCell>
                <mxCell id="Hh7dZNtptdnggyX2xkTj-15" value="" style="edgeStyle=orthogonalEdgeStyle;html=1;verticalAlign=bottom;endArrow=open;endSize=8;strokeColor=#000000;rounded=0;entryX=0;entryY=0.5;entryDx=0;entryDy=0;exitX=0.5;exitY=1;exitDx=0;exitDy=0;" parent="1" source="Hh7dZNtptdnggyX2xkTj-12" target="Hh7dZNtptdnggyX2xkTj-14" edge="1">
                    <mxGeometry relative="1" as="geometry">
                        <mxPoint x="223" y="635" as="targetPoint"/>
                        <mxPoint x="390" y="560" as="sourcePoint"/>
                    </mxGeometry>
                </mxCell>
                <mxCell id="Hh7dZNtptdnggyX2xkTj-27" value="" style="ellipse;html=1;shape=endState;fillColor=#000000;strokeColor=#000000;" parent="1" vertex="1">
                    <mxGeometry x="557.75" y="880" width="30" height="30" as="geometry"/>
                </mxCell>
                <mxCell id="5fcugws8goPnPG6MF6zP-2" value="Escolhe comprar passagem" style="rounded=1;whiteSpace=wrap;html=1;" parent="1" vertex="1">
                    <mxGeometry x="198.25" y="510" width="125" height="50" as="geometry"/>
                </mxCell>
                <mxCell id="5fcugws8goPnPG6MF6zP-3" value="" style="edgeStyle=orthogonalEdgeStyle;html=1;verticalAlign=bottom;endArrow=open;endSize=8;strokeColor=#000000;rounded=0;entryX=1;entryY=0.5;entryDx=0;entryDy=0;exitX=0.5;exitY=1;exitDx=0;exitDy=0;" parent="1" source="Hh7dZNtptdnggyX2xkTj-14" target="5fcugws8goPnPG6MF6zP-2" edge="1">
                    <mxGeometry relative="1" as="geometry">
                        <mxPoint x="330" y="445" as="targetPoint"/>
                        <mxPoint x="625" y="410" as="sourcePoint"/>
                    </mxGeometry>
                </mxCell>
                <mxCell id="5fcugws8goPnPG6MF6zP-5" value="Mostra métodos de pagamento disponíveis" style="rounded=1;whiteSpace=wrap;html=1;" parent="1" vertex="1">
                    <mxGeometry x="510.25" y="580" width="125" height="50" as="geometry"/>
                </mxCell>
                <mxCell id="5fcugws8goPnPG6MF6zP-6" value="" style="edgeStyle=orthogonalEdgeStyle;html=1;verticalAlign=bottom;endArrow=open;endSize=8;strokeColor=#000000;rounded=0;exitX=0.5;exitY=1;exitDx=0;exitDy=0;entryX=0;entryY=0.5;entryDx=0;entryDy=0;" parent="1" source="5fcugws8goPnPG6MF6zP-2" target="5fcugws8goPnPG6MF6zP-5" edge="1">
                    <mxGeometry relative="1" as="geometry">
                        <mxPoint x="507.75" y="585" as="targetPoint"/>
                        <mxPoint x="220" y="600" as="sourcePoint"/>
                    </mxGeometry>
                </mxCell>
                <mxCell id="5fcugws8goPnPG6MF6zP-7" value="Escolhe método de pagamento" style="rounded=1;whiteSpace=wrap;html=1;" parent="1" vertex="1">
                    <mxGeometry x="196.5" y="640" width="125" height="50" as="geometry"/>
                </mxCell>
                <mxCell id="5fcugws8goPnPG6MF6zP-8" value="" style="edgeStyle=orthogonalEdgeStyle;html=1;verticalAlign=bottom;endArrow=open;endSize=8;strokeColor=#000000;rounded=0;entryX=1;entryY=0.5;entryDx=0;entryDy=0;exitX=0.5;exitY=1;exitDx=0;exitDy=0;" parent="1" source="5fcugws8goPnPG6MF6zP-5" target="5fcugws8goPnPG6MF6zP-7" edge="1">
                    <mxGeometry relative="1" as="geometry">
                        <mxPoint x="321.75" y="1115" as="targetPoint"/>
                        <mxPoint x="585.4999999999998" y="1160" as="sourcePoint"/>
                    </mxGeometry>
                </mxCell>
                <mxCell id="5fcugws8goPnPG6MF6zP-12" value="" style="edgeStyle=orthogonalEdgeStyle;html=1;verticalAlign=bottom;endArrow=open;endSize=8;strokeColor=#000000;rounded=0;entryX=0;entryY=0.5;entryDx=0;entryDy=0;exitX=0.5;exitY=1;exitDx=0;exitDy=0;" parent="1" source="5fcugws8goPnPG6MF6zP-7" target="5fcugws8goPnPG6MF6zP-33" edge="1">
                    <mxGeometry relative="1" as="geometry">
                        <mxPoint x="816.5" y="1075" as="targetPoint"/>
                        <mxPoint x="243.5" y="1280" as="sourcePoint"/>
                    </mxGeometry>
                </mxCell>
                <mxCell id="5fcugws8goPnPG6MF6zP-30" value="" style="edgeStyle=orthogonalEdgeStyle;html=1;verticalAlign=bottom;endArrow=open;endSize=8;strokeColor=#000000;rounded=0;entryX=0.5;entryY=0;entryDx=0;entryDy=0;exitX=0.5;exitY=1;exitDx=0;exitDy=0;" parent="1" edge="1">
                    <mxGeometry relative="1" as="geometry">
                        <mxPoint x="820" y="1224" as="targetPoint"/>
                        <mxPoint x="872.5" y="1239.0000000000002" as="sourcePoint"/>
                    </mxGeometry>
                </mxCell>
                <mxCell id="5fcugws8goPnPG6MF6zP-33" value="Cria passagem" style="rounded=1;whiteSpace=wrap;html=1;" parent="1" vertex="1">
                    <mxGeometry x="510.25" y="700" width="125" height="50" as="geometry"/>
                </mxCell>
                <mxCell id="5fcugws8goPnPG6MF6zP-36" value="Informa que a passagem foi comprada com sucesso" style="rounded=1;whiteSpace=wrap;html=1;" parent="1" vertex="1">
                    <mxGeometry x="502.75" y="790" width="140" height="50" as="geometry"/>
                </mxCell>
                <mxCell id="5fcugws8goPnPG6MF6zP-37" value="" style="edgeStyle=orthogonalEdgeStyle;html=1;verticalAlign=bottom;endArrow=open;endSize=8;strokeColor=#000000;rounded=0;entryX=0.5;entryY=0;entryDx=0;entryDy=0;exitX=0.5;exitY=1;exitDx=0;exitDy=0;" parent="1" source="5fcugws8goPnPG6MF6zP-33" target="5fcugws8goPnPG6MF6zP-36" edge="1">
                    <mxGeometry relative="1" as="geometry">
                        <mxPoint x="562.39" y="1500" as="targetPoint"/>
                        <mxPoint x="562.39" y="1460" as="sourcePoint"/>
                    </mxGeometry>
                </mxCell>
                <mxCell id="5fcugws8goPnPG6MF6zP-38" value="" style="edgeStyle=orthogonalEdgeStyle;html=1;verticalAlign=bottom;endArrow=open;endSize=8;strokeColor=#000000;rounded=0;entryX=0.5;entryY=0;entryDx=0;entryDy=0;exitX=0.5;exitY=1;exitDx=0;exitDy=0;" parent="1" source="5fcugws8goPnPG6MF6zP-36" target="Hh7dZNtptdnggyX2xkTj-27" edge="1">
                    <mxGeometry relative="1" as="geometry">
                        <mxPoint x="562.3" y="1530" as="targetPoint"/>
                        <mxPoint x="562.3" y="1490" as="sourcePoint"/>
                        <Array as="points">
                            <mxPoint x="573" y="850"/>
                            <mxPoint x="573" y="850"/>
                        </Array>
                    </mxGeometry>
                </mxCell>
            </root>
        </mxGraphModel>
    </diagram>
</mxfile>